<?xml version="1.0" encoding="UTF-8" standalone="no"?>
<!-- Created with Inkscape (http://www.inkscape.org/) -->

<svg
   xmlns:dc="http://purl.org/dc/elements/1.1/"
   xmlns:cc="http://creativecommons.org/ns#"
   xmlns:rdf="http://www.w3.org/1999/02/22-rdf-syntax-ns#"
   xmlns:svg="http://www.w3.org/2000/svg"
   xmlns="http://www.w3.org/2000/svg"
   xmlns:xlink="http://www.w3.org/1999/xlink"
   xmlns:sodipodi="http://sodipodi.sourceforge.net/DTD/sodipodi-0.dtd"
   xmlns:inkscape="http://www.inkscape.org/namespaces/inkscape"
   width="210mm"
   height="297mm"
   viewBox="0 0 210 297"
   version="1.1"
   id="svg8"
   inkscape:version="0.92.3 (2405546, 2018-03-11)"
   sodipodi:docname="world.svg">
  <defs
     id="defs2"><pattern
   inkscape:stockid="Stripes 1:1"
   id="Strips1_1"
   patternTransform="translate(0,0) scale(10,10)"
   height="1"
   width="2"
   patternUnits="userSpaceOnUse"
   inkscape:collect="always">
  <rect
     id="rect5720"
     height="2"
     width="1"
     y="-0.5"
     x="0"
     style="fill:black;stroke:none" />
</pattern>
<linearGradient
   inkscape:collect="always"
   id="linearGradient4982">
  <stop
     style="stop-color:#000000;stop-opacity:1;"
     offset="0"
     id="stop4978" />
  <stop
     style="stop-color:#000000;stop-opacity:0;"
     offset="1"
     id="stop4980" />
</linearGradient>

	
	
	
<radialGradient
   inkscape:collect="always"
   xlink:href="#linearGradient4982"
   id="radialGradient4988"
   cx="256"
   cy="264.58249"
   fx="256"
   fy="264.58249"
   r="196.267"
   gradientTransform="matrix(1,0,0,0.99999745,0,6.7403715e-4)"
   gradientUnits="userSpaceOnUse" />
</defs>
  <sodipodi:namedview
     id="base"
     pagecolor="#ffffff"
     bordercolor="#666666"
     borderopacity="1.0"
     inkscape:pageopacity="0.0"
     inkscape:pageshadow="2"
     inkscape:zoom="0.175"
     inkscape:cx="13423.447"
     inkscape:cy="1305.8693"
     inkscape:document-units="mm"
     inkscape:current-layer="layer1"
     showgrid="false"
     inkscape:snap-bbox="true"
     inkscape:window-width="1920"
     inkscape:window-height="1017"
     inkscape:window-x="1912"
     inkscape:window-y="-8"
     inkscape:window-maximized="1" />
  <metadata
     id="metadata5">
    <rdf:RDF>
      <cc:Work
         rdf:about="">
        <dc:format>image/svg+xml</dc:format>
        <dc:type
           rdf:resource="http://purl.org/dc/dcmitype/StillImage" />
        <dc:title></dc:title>
      </cc:Work>
    </rdf:RDF>
  </metadata>
  <g
     inkscape:label="Calque 1"
     inkscape:groupmode="layer"
     id="layer1">
    <g
       id="g388"
       transform="matrix(4.7989122,0,0,4.8285152,-171.25333,120.82754)">
      <g
         transform="matrix(0.26458333,0,0,0.26458333,59.030297,-103.74066)"
         id="g14"
         style="fill:url(#Strips1_1);fill-opacity:1;stroke:none;stroke-opacity:1">
	<g
   id="g12"
   style="fill:url(#Strips1_1);fill-opacity:1;stroke:none;stroke-opacity:1">
		<path
   id="path10"
   d="m 256,68.316 c -108.22,0 -196.267,88.047 -196.267,196.267 0,108.22 88.047,196.266 196.267,196.266 108.22,0 196.267,-88.047 196.267,-196.267 C 452.267,156.362 364.22,68.316 256,68.316 Z m 0,375.466 c -98.807,0 -179.2,-80.384 -179.2,-179.2 0,-98.816 80.393,-179.2 179.2,-179.2 98.816,0 179.2,80.384 179.2,179.2 0,98.816 -80.384,179.2 -179.2,179.2 z"
   inkscape:connector-curvature="0"
   style="fill:url(#Strips1_1);fill-opacity:1;stroke:none;stroke-opacity:1" />

	</g>

</g>
      <g
         transform="matrix(0.26458333,0,0,0.26458333,64.979919,-107.56542)"
         id="g20">
	<g
   id="g18">
		<path
   id="path16"
   d="m 338.364,86.449 c -0.785,-0.358 -1.613,-0.606 -2.466,-0.717 l -1.971,-0.265 c -3.038,-0.435 -6.05,0.836 -7.902,3.268 -1.86,2.432 -2.278,5.658 -1.101,8.482 5.862,14.012 12.843,42.334 3.917,48.836 l -19.78,7.91 c -14.976,5.99 -25.472,19.746 -27.392,35.951 l -0.128,0.981 c -0.469,3.396 -3.243,4.318 -4.412,4.557 -2.116,0.427 -4.941,-0.085 -6.562,-2.799 l -8.474,-14.123 c -3.115,-5.197 -8.866,-8.286 -14.839,-7.919 -6.016,0.307 -11.332,3.883 -13.892,9.344 -7.62,16.273 -17.186,39.757 -19.507,59.204 -0.717,6.033 0.358,12.126 3.106,17.63 l 9.839,19.678 c 3.49,6.963 8.841,12.868 15.488,17.067 6.127,3.866 17.485,11.665 24.721,20.403 8.235,9.958 19.328,16.393 31.241,18.313 -0.478,15.983 0.572,42.257 11.452,53.862 3.806,4.053 8.576,6.281 13.858,6.46 0.956,0.128 2.637,0.299 4.813,0.299 6.332,0 16.905,-1.434 26.573,-9.421 13.466,-11.127 20.369,-30.703 20.523,-58.189 l 12.22,-55.006 4.642,7.731 c 3.772,6.289 10.078,10.709 17.28,12.126 7.202,1.417 14.711,-0.307 20.591,-4.71 l 18.654,-13.995 c 2.15,-1.613 3.413,-4.139 3.413,-6.827 C 452.267,188.405 407.552,118.483 338.364,86.449 Z m 81.595,185.301 c -2.048,1.527 -4.565,2.099 -7.066,1.613 -2.509,-0.486 -4.617,-1.971 -5.931,-4.164 l -8.849,-14.754 c -2.918,-4.873 -8.414,-7.433 -14.046,-6.519 -5.606,0.913 -10.027,5.086 -11.264,10.633 l -14.199,63.906 c -0.137,0.606 -0.205,1.229 -0.205,1.852 0,22.161 -4.881,37.999 -14.114,45.807 -8.439,7.134 -18.091,5.589 -18.398,5.547 -1.101,-0.205 -1.937,0.683 -3.729,-1.229 -5.316,-5.675 -8.004,-25.481 -6.536,-48.179 0.171,-2.697 -0.794,-5.385 -2.645,-7.356 -1.86,-1.988 -4.506,-3.123 -7.236,-3.123 -9.566,0 -18.893,-4.634 -25.591,-12.715 -8.303,-10.044 -20.224,-18.577 -28.757,-23.962 -4.011,-2.534 -7.236,-6.084 -9.327,-10.266 l -9.839,-19.678 c -1.254,-2.509 -1.749,-5.274 -1.425,-7.987 2.091,-17.459 11.529,-39.953 17.399,-52.642 l 7.74,12.894 c 5.12,8.533 14.771,12.723 24.619,10.735 9.549,-1.954 16.58,-9.387 17.894,-18.953 l 0.179,-1.348 c 1.169,-9.941 7.595,-18.389 16.768,-22.059 l 20.574,-8.226 c 0.427,-0.171 0.853,-0.384 1.254,-0.623 16.213,-9.847 14.114,-33.417 9.856,-50.671 52.847,31.292 86.588,88.175 88.064,150.076 z"
   inkscape:connector-curvature="0" />

	</g>

</g>
      <g
         transform="matrix(0.26458333,0,0,0.26458333,54.780567,-98.428501)"
         id="g26">
	<g
   id="g24">
		<path
   id="path22"
   d="m 215.765,382.948 -5.171,-5.163 C 204.322,371.504 197,366.555 188.843,363.056 l -26.317,-11.281 c -10.607,-4.548 -17.459,-14.942 -17.459,-26.487 v -12.843 c 0,-7.859 -3.857,-15.215 -10.317,-19.695 -6.46,-4.471 -14.711,-5.487 -22.067,-2.739 l -40.977,15.36 c -4.113,1.545 -6.391,5.956 -5.248,10.206 19.208,71.535 78.524,127.078 151.117,141.491 0.563,0.111 1.126,0.162 1.673,0.162 3.746,0 7.142,-2.466 8.209,-6.187 l 3.123,-10.94 c 5.802,-20.316 0.127,-42.221 -14.815,-57.155 z m -1.595,52.463 -0.922,3.209 C 152.977,423.815 103.851,377.794 85.12,318.573 l 33.553,-12.578 c 2.159,-0.819 4.471,-0.529 6.357,0.785 1.886,1.306 2.97,3.371 2.97,5.666 v 12.843 c 0,18.381 10.914,34.935 27.802,42.172 l 26.317,11.281 c 6.161,2.645 11.682,6.383 16.41,11.11 l 5.171,5.163 c 10.555,10.555 14.574,26.034 10.47,40.396 z"
   inkscape:connector-curvature="0" />

	</g>

</g>
      <g
         transform="matrix(0.26458333,0,0,0.26458333,54.56808,-109.4778)"
         id="g32">
	<g
   id="g30">
		<path
   id="path28"
   d="m 166.545,97.918 c -2.671,-3.294 -7.356,-4.122 -11,-1.946 -56.354,33.647 -92.066,92.749 -95.522,158.089 -0.154,2.893 1.169,5.666 3.516,7.364 1.476,1.075 3.226,1.621 5.001,1.621 1.05,0 2.099,-0.196 3.089,-0.572 l 52.932,-20.89 c 12.681,-5.077 19.226,-19.191 14.908,-32.145 -1.05,-3.166 -0.239,-6.596 2.116,-8.96 l 24.593,-24.593 c 8.397,-8.388 13.022,-19.55 13.022,-31.428 v -11.102 c 0,-12.799 -4.497,-25.386 -12.655,-35.438 z m -4.412,46.532 c 0,7.322 -2.85,14.191 -8.03,19.362 l -24.593,24.593 c -6.955,6.963 -9.344,17.084 -6.229,26.419 1.468,4.395 -0.759,9.182 -5.052,10.897 l -39.953,15.838 c 6.63,-51.618 35.422,-97.809 79.172,-126.643 3.055,5.675 4.685,12.023 4.685,18.432 z"
   inkscape:connector-curvature="0" />

	</g>

</g>
    </g>
    <g
       id="g468"
       transform="matrix(7.220003,0,0,7.220003,825.92202,-618.54282)">
      <g
         transform="matrix(0.26458333,0,0,0.26458333,57.755378,-42.119576)"
         id="g38">
	<g
   id="g36">
		<path
   id="path34"
   d="m 256,0.049 c -8.823,0 -17.724,0.452 -26.453,1.348 -4.685,0.478 -8.098,4.676 -7.62,9.361 0.452,4.395 4.164,7.663 8.482,7.663 0.29,0 0.589,-0.017 0.879,-0.051 8.149,-0.828 16.461,-1.254 24.713,-1.254 4.71,0 8.533,-3.823 8.533,-8.533 0,-4.71 -3.824,-8.534 -8.534,-8.534 z"
   inkscape:connector-curvature="0" />

	</g>

</g>
      <g
         id="g426">
        <g
           id="g44"
           transform="matrix(0.26458333,0,0,0.26458333,57.755378,-42.119576)">
	<g
   id="g42">
		<path
   inkscape:connector-curvature="0"
   d="m 20.429,296.207 c -2.227,-13.176 -3.362,-26.684 -3.362,-40.158 0,-2.85 0.051,-5.692 0.154,-8.533 0.162,-4.71 -3.524,-8.653 -8.235,-8.823 -4.668,-0.247 -8.653,3.524 -8.823,8.235 C 0.051,249.956 0,252.994 0,256.049 c 0,14.421 1.212,28.894 3.593,43.008 0.708,4.164 4.318,7.108 8.405,7.108 0.478,0 0.956,-0.034 1.442,-0.119 4.642,-0.785 7.774,-5.189 6.989,-9.839 z"
   id="path40" />

	</g>

</g>
        <g
           id="g50"
           transform="matrix(0.26458333,0,0,0.26458333,57.755378,-42.119576)">
	<g
   id="g48">
		<path
   inkscape:connector-curvature="0"
   d="m 55.826,386.558 c -8.91,-13.637 -16.436,-28.22 -22.367,-43.35 -1.724,-4.386 -6.673,-6.554 -11.059,-4.83 -4.386,1.715 -6.554,6.665 -4.83,11.059 6.357,16.213 14.421,31.838 23.962,46.447 1.638,2.509 4.369,3.866 7.151,3.866 1.604,0 3.226,-0.452 4.668,-1.382 3.942,-2.577 5.052,-7.868 2.475,-11.81 z"
   id="path46" />

	</g>

</g>
        <g
           id="g56"
           transform="matrix(0.26458333,0,0,0.26458333,57.755378,-42.119576)">
	<g
   id="g54">
		<path
   inkscape:connector-curvature="0"
   d="m 36.215,141.89 c -4.25,-2.022 -9.344,-0.222 -11.375,4.028 -7.518,15.744 -13.423,32.316 -17.553,49.246 -1.117,4.582 1.682,9.199 6.264,10.316 0.683,0.162 1.365,0.239 2.031,0.239 3.84,0 7.33,-2.62 8.286,-6.511 3.857,-15.795 9.361,-31.258 16.375,-45.943 2.031,-4.258 0.23,-9.344 -4.028,-11.375 z"
   id="path52" />

	</g>

</g>
        <g
           id="g62"
           transform="matrix(0.26458333,0,0,0.26458333,57.755378,-42.119576)">
	<g
   id="g60">
		<path
   inkscape:connector-curvature="0"
   d="m 99.772,63.937 c -3.098,-3.55 -8.482,-3.925 -12.041,-0.819 -13.133,11.469 -25.139,24.32 -35.678,38.187 -2.85,3.746 -2.125,9.105 1.63,11.955 1.544,1.178 3.354,1.741 5.154,1.741 2.577,0 5.12,-1.169 6.801,-3.371 9.839,-12.953 21.052,-24.951 33.315,-35.652 3.55,-3.098 3.917,-8.491 0.819,-12.041 z"
   id="path58" />

	</g>

</g>
        <g
           id="g68"
           transform="matrix(0.26458333,0,0,0.26458333,57.755378,-42.119576)">
	<g
   id="g66">
		<path
   inkscape:connector-curvature="0"
   d="m 214.366,491.381 c -16.034,-2.825 -31.821,-7.305 -46.908,-13.329 -4.386,-1.749 -9.344,0.375 -11.093,4.762 -1.749,4.369 0.384,9.335 4.762,11.085 16.171,6.46 33.092,11.264 50.278,14.285 0.495,0.085 0.99,0.128 1.485,0.128 4.07,0 7.672,-2.918 8.405,-7.048 0.811,-4.643 -2.287,-9.064 -6.929,-9.883 z"
   id="path64" />

	</g>

</g>
        <g
           id="g74"
           transform="matrix(0.26458333,0,0,0.26458333,57.755378,-42.119576)">
	<g
   id="g72">
		<path
   inkscape:connector-curvature="0"
   d="m 321.681,494.863 c -1.092,-4.591 -5.709,-7.407 -10.274,-6.332 -15.77,3.746 -32.043,5.888 -48.375,6.357 -4.71,0.128 -8.422,4.062 -8.286,8.772 0.137,4.625 3.925,8.286 8.525,8.286 0.077,0 0.162,0 0.256,-0.008 17.493,-0.503 34.927,-2.79 51.823,-6.801 4.582,-1.092 7.415,-5.692 6.331,-10.274 z"
   id="path70" />

	</g>

</g>
        <g
           id="g80"
           transform="matrix(0.26458333,0,0,0.26458333,57.755378,-42.119576)">
	<g
   id="g78">
		<path
   inkscape:connector-curvature="0"
   d="m 189.039,17.593 c -1.425,-4.489 -6.229,-6.963 -10.718,-5.547 -16.606,5.282 -32.734,12.314 -47.932,20.89 -4.105,2.321 -5.547,7.526 -3.234,11.631 1.57,2.773 4.463,4.335 7.441,4.335 1.417,0 2.859,-0.358 4.181,-1.101 14.174,-8.004 29.227,-14.566 44.715,-19.49 4.489,-1.425 6.972,-6.229 5.547,-10.718 z"
   id="path76" />

	</g>

</g>
        <g
           id="g86"
           transform="matrix(0.26458333,0,0,0.26458333,57.755378,-42.119576)">
	<g
   id="g84">
		<path
   inkscape:connector-curvature="0"
   d="m 124.245,455.396 c -13.551,-8.969 -26.24,-19.379 -37.726,-30.933 -3.319,-3.337 -8.73,-3.362 -12.066,-0.034 -3.337,3.328 -3.354,8.73 -0.034,12.075 12.305,12.373 25.899,23.526 40.405,33.135 1.451,0.956 3.089,1.417 4.702,1.417 2.765,0 5.478,-1.34 7.117,-3.831 2.603,-3.927 1.528,-9.226 -2.398,-11.829 z"
   id="path82" />

	</g>

</g>
        <g
           id="g92"
           transform="matrix(0.26458333,0,0,0.26458333,57.755378,-42.119576)">
	<g
   id="g90">
		<path
   inkscape:connector-curvature="0"
   d="m 391.305,463.452 c -2.449,-4.028 -7.697,-5.325 -11.725,-2.876 -7.014,4.25 -14.336,8.175 -21.76,11.682 -4.258,2.014 -6.093,7.091 -4.079,11.358 1.459,3.089 4.523,4.898 7.723,4.898 1.22,0 2.458,-0.265 3.644,-0.819 7.962,-3.755 15.804,-7.962 23.322,-12.518 4.027,-2.45 5.315,-7.698 2.875,-11.725 z"
   id="path88" />

	</g>

</g>
        <g
           id="g98"
           transform="matrix(0.26458333,0,0,0.26458333,57.755378,-42.119576)">
	<g
   id="g96">
		<path
   inkscape:connector-curvature="0"
   d="m 510.2,378.809 c -2.901,-3.729 -8.269,-4.395 -11.972,-1.502 l -76.8,59.733 c -2.074,1.621 -3.294,4.105 -3.294,6.741 v 25.6 c 0,4.71 3.823,8.533 8.533,8.533 4.71,0 8.533,-3.823 8.533,-8.533 v -21.427 l 73.498,-57.173 c 3.72,-2.892 4.394,-8.251 1.502,-11.972 z"
   id="path94" />

	</g>

</g>
        <g
           id="g104"
           transform="matrix(0.26458333,0,0,0.26458333,57.755378,-42.119576)">
	<g
   id="g102">
		<path
   inkscape:connector-curvature="0"
   d="m 429.372,435.684 -25.6,-8.533 c -4.489,-1.51 -9.31,0.93 -10.795,5.393 -1.493,4.471 0.922,9.301 5.393,10.795 l 25.6,8.533 c 0.896,0.299 1.809,0.444 2.697,0.444 3.575,0 6.903,-2.261 8.098,-5.837 1.493,-4.472 -0.922,-9.302 -5.393,-10.795 z"
   id="path100" />

	</g>

</g>
        <g
           id="g110"
           transform="matrix(0.26458333,0,0,0.26458333,57.755378,-42.119576)">
	<g
   id="g108">
		<path
   inkscape:connector-curvature="0"
   d="m 494.319,449.133 -17.067,-42.667 c -0.691,-1.732 -1.937,-3.191 -3.533,-4.147 l -42.667,-25.6 c -4.045,-2.423 -9.284,-1.118 -11.708,2.927 -2.424,4.045 -1.118,9.284 2.927,11.708 l 40.201,24.124 16,40.004 c 1.34,3.337 4.54,5.367 7.927,5.367 1.058,0 2.133,-0.196 3.166,-0.623 4.379,-1.749 6.503,-6.716 4.754,-11.093 z"
   id="path106" />

	</g>

</g>
      </g>
    </g>
    <g
       id="g112"
       transform="matrix(0.26458333,0,0,0.26458333,57.755378,-42.119576)">
</g>
    <g
       id="g114"
       transform="matrix(0.26458333,0,0,0.26458333,57.755378,-42.119576)">
</g>
    <g
       id="g116"
       transform="matrix(0.26458333,0,0,0.26458333,57.755378,-42.119576)">
</g>
    <g
       id="g118"
       transform="matrix(0.26458333,0,0,0.26458333,57.755378,-42.119576)">
</g>
    <g
       id="g120"
       transform="matrix(0.26458333,0,0,0.26458333,57.755378,-42.119576)">
</g>
    <g
       id="g122"
       transform="matrix(0.26458333,0,0,0.26458333,57.755378,-42.119576)">
</g>
    <g
       id="g124"
       transform="matrix(0.26458333,0,0,0.26458333,57.755378,-42.119576)">
</g>
    <g
       id="g126"
       transform="matrix(0.26458333,0,0,0.26458333,57.755378,-42.119576)">
</g>
    <g
       id="g128"
       transform="matrix(0.26458333,0,0,0.26458333,57.755378,-42.119576)">
</g>
    <g
       id="g130"
       transform="matrix(0.26458333,0,0,0.26458333,57.755378,-42.119576)">
</g>
    <g
       id="g132"
       transform="matrix(0.26458333,0,0,0.26458333,57.755378,-42.119576)">
</g>
    <g
       id="g134"
       transform="matrix(0.26458333,0,0,0.26458333,57.755378,-42.119576)">
</g>
    <g
       id="g136"
       transform="matrix(0.26458333,0,0,0.26458333,57.755378,-42.119576)">
</g>
    <g
       id="g138"
       transform="matrix(0.26458333,0,0,0.26458333,57.755378,-42.119576)">
</g>
    <g
       id="g140"
       transform="matrix(0.26458333,0,0,0.26458333,57.755378,-42.119576)">
</g>
    <path
       id="path217"
       d="m -406.14396,87.385522 c -5.24107,0 -12.19245,13.446748 -12.19245,23.711518 0,6.76564 2.37848,10.43853 5.93168,12.15857 2.86559,1.38922 4.54489,4.3131 4.23251,7.36104 l 2.02845,49.81034 v 0 0 l 2.02825,-49.81034 c -0.3126,-3.04794 1.36949,-5.97162 4.23229,-7.36104 3.55318,-1.72025 5.93168,-5.39293 5.93168,-12.15857 0,-10.26477 -6.67235,-23.711518 -12.19244,-23.711518 z"
       style="fill:#000100;stroke-width:0.20869608"
       inkscape:connector-curvature="0"
       sodipodi:nodetypes="cscccccccssc" />
    <path
       id="path219"
       d="m -443.86764,55.831611 c -0.93538,0 -1.69454,0.75854 -1.69454,1.69742 v 20.87994 c 0,0.94179 -0.76226,1.70384 -1.70386,1.70384 -0.9418,0 -1.70387,-0.76205 -1.70387,-1.70384 v -20.87994 c 0,-0.93888 -0.75958,-1.69742 -1.69453,-1.69742 h -0.0199 c -0.93516,0 -1.6935,0.75854 -1.6935,1.69742 v 20.87994 c 0,0.94179 -0.76227,1.70384 -1.70489,1.70384 -0.9418,0 -1.70388,-0.76205 -1.70388,-1.70384 v -20.87994 c 0,-0.93888 -0.75833,-1.69742 -1.6937,-1.69742 h -0.0205 c -0.93517,0 -1.6935,0.75854 -1.6935,1.69742 v 20.87994 c 0,0.94179 -0.76226,1.70384 -1.70386,1.70384 -0.94179,0 -1.70406,-0.76205 -1.70406,-1.70384 v -20.87994 c 0,-0.93888 -0.75937,-1.69742 -1.69453,-1.69742 -0.8883,0 -1.60766,0.71812 -1.60766,1.60373 v 22.52781 c 0,6.88547 2.30712,10.62343 5.75131,12.37393 2.77917,1.41383 4.40633,4.38949 4.10345,7.49143 l 1.82375,48.144549 c 0,0 0.0248,1.62183 0,0 l 2.11053,-48.144549 c -0.30307,-3.10194 1.32782,-6.0774 4.10346,-7.49143 3.44401,-1.75071 5.75031,-5.48846 5.75031,-12.37393 v -22.52781 c 6.2e-4,-0.88561 -0.7177,-1.60373 -1.60601,-1.60373 z"
       style="fill:#000000;stroke-width:0.20730668"
       inkscape:connector-curvature="0"
       sodipodi:nodetypes="sssssssssssssssssssssssccccccscss" />
    <path
       id="path221"
       d="m -295.75011,195.85921 c 0.81968,0 1.4822,-0.66226 1.4822,-1.48246 v -57.53709 c 0,-1.43589 -1.16337,-2.59953 -2.60271,-2.59953 -1.24486,0 -2.34077,0.82365 -2.68419,2.02195 l -9.01013,31.41477 c -2.63286,9.19109 -1.01917,19.08439 4.40082,26.96263 0.52731,0.76517 1.39726,1.21973 2.32357,1.21973 l -5.78988,59.1259 c -0.24236,2.49344 0.57785,4.97338 2.2606,6.82572 1.68143,1.85606 4.06877,2.91333 6.57543,2.91333 2.50507,0 4.89188,-1.05754 6.57489,-2.91333 1.68169,-1.85234 2.50164,-4.33255 2.25902,-6.82572 z"
       style="fill:#000100;stroke-width:0.26458332"
       inkscape:connector-curvature="0" />
    <g
       id="g224"
       transform="matrix(0.26458333,0,0,0.26458333,34.543409,144.06751)">
</g>
    <g
       id="g226"
       transform="matrix(0.26458333,0,0,0.26458333,34.543409,144.06751)">
</g>
    <g
       id="g228"
       transform="matrix(0.26458333,0,0,0.26458333,34.543409,144.06751)">
</g>
    <g
       id="g230"
       transform="matrix(0.26458333,0,0,0.26458333,34.543409,144.06751)">
</g>
    <g
       id="g232"
       transform="matrix(0.26458333,0,0,0.26458333,34.543409,144.06751)">
</g>
    <g
       id="g234"
       transform="matrix(0.26458333,0,0,0.26458333,34.543409,144.06751)">
</g>
    <g
       id="g236"
       transform="matrix(0.26458333,0,0,0.26458333,34.543409,144.06751)">
</g>
    <g
       id="g238"
       transform="matrix(0.26458333,0,0,0.26458333,34.543409,144.06751)">
</g>
    <g
       id="g240"
       transform="matrix(0.26458333,0,0,0.26458333,34.543409,144.06751)">
</g>
    <g
       id="g242"
       transform="matrix(0.26458333,0,0,0.26458333,34.543409,144.06751)">
</g>
    <g
       id="g244"
       transform="matrix(0.26458333,0,0,0.26458333,34.543409,144.06751)">
</g>
    <g
       id="g246"
       transform="matrix(0.26458333,0,0,0.26458333,34.543409,144.06751)">
</g>
    <g
       id="g248"
       transform="matrix(0.26458333,0,0,0.26458333,34.543409,144.06751)">
</g>
    <g
       id="g250"
       transform="matrix(0.26458333,0,0,0.26458333,34.543409,144.06751)">
</g>
    <g
       id="g252"
       transform="matrix(0.26458333,0,0,0.26458333,34.543409,144.06751)">
</g>
    <text
       xml:space="preserve"
       style="font-style:normal;font-weight:normal;font-size:206.36157227px;line-height:1.25;font-family:sans-serif;letter-spacing:0px;word-spacing:0px;fill:#000000;fill-opacity:1;stroke:none;stroke-width:5.15903902"
       x="-199.21114"
       y="597.32001"
       id="text306"
       transform="scale(1.1471362,0.87173607)"><tspan
         sodipodi:role="line"
         x="-199.21114"
         y="597.32001"
         style="stroke-width:5.15903902"
         id="tspan308">Food</tspan></text>
    <text
       xml:space="preserve"
       style="font-style:normal;font-weight:normal;font-size:216.05290222px;line-height:1.25;font-family:sans-serif;letter-spacing:0px;word-spacing:0px;fill:#000000;fill-opacity:1;stroke:none;stroke-width:5.40132236"
       x="410.68784"
       y="592.59381"
       id="text306-6"
       transform="scale(1.1530065,0.86729779)"><tspan
         sodipodi:role="line"
         id="tspan304-1"
         x="410.68784"
         y="592.59381"
         style="stroke-width:5.40132236">travel</tspan><tspan
         sodipodi:role="line"
         x="410.68784"
         y="862.65991"
         style="stroke-width:5.40132236"
         id="tspan308-4" /></text>
    <path
       style="fill:#000000;fill-opacity:1;stroke:none;stroke-width:0.26458332;stroke-opacity:1"
       id="path6500"
       sodipodi:type="arc"
       sodipodi:cx="3882.5715"
       sodipodi:cy="-459.70834"
       sodipodi:rx="170.84525"
       sodipodi:ry="167.06548"
       sodipodi:start="3.1949125"
       sodipodi:end="3.1506684"
       sodipodi:open="true"
       d="m 3711.9691,-468.61203 a 170.84525,167.06548 0 0 1 177.82,-158.01264 170.84525,167.06548 0 0 1 163.5445,172.12756 170.84525,167.06548 0 0 1 -174.2021,161.82037 170.84525,167.06548 0 0 1 -167.3982,-168.54783" />
    <path
       style="fill:#000000;fill-opacity:1;stroke:none;stroke-width:0.26458332;stroke-opacity:1"
       id="path6502"
       sodipodi:type="arc"
       sodipodi:cx="2627.6904"
       sodipodi:cy="-190.58928"
       sodipodi:rx="6.0476193"
       sodipodi:ry="0.75595242"
       sodipodi:start="3.1949125"
       sodipodi:end="2.2668685"
       sodipodi:open="true"
       d="m 2621.6514,-190.62957 a 6.0476193,0.75595242 0 0 1 4.9641,-0.70362 6.0476193,0.75595242 0 0 1 6.6196,0.44209 6.0476193,0.75595242 0 0 1 -1.9199,0.90694 6.0476193,0.75595242 0 0 1 -7.5026,-0.025" />
    <g
       id="g6508"
       transform="matrix(0.26458333,0,0,0.26458333,3520.0173,-124.51839)">
	<g
   id="g6506">
		<path
   inkscape:connector-curvature="0"
   d="m 256,68.316 c -108.22,0 -196.267,88.047 -196.267,196.267 0,108.22 88.047,196.266 196.267,196.266 108.22,0 196.267,-88.047 196.267,-196.267 C 452.267,156.362 364.22,68.316 256,68.316 Z m 0,375.466 c -98.807,0 -179.2,-80.384 -179.2,-179.2 0,-98.816 80.393,-179.2 179.2,-179.2 98.816,0 179.2,80.384 179.2,179.2 0,98.816 -80.384,179.2 -179.2,179.2 z"
   id="path6504" />

	</g>

</g>
    <g
       id="g6514"
       transform="matrix(0.26458333,0,0,0.26458333,3520.0173,-124.51839)">
	<g
   id="g6512">
		<path
   inkscape:connector-curvature="0"
   d="m 338.364,86.449 c -0.785,-0.358 -1.613,-0.606 -2.466,-0.717 l -1.971,-0.265 c -3.038,-0.435 -6.05,0.836 -7.902,3.268 -1.86,2.432 -2.278,5.658 -1.101,8.482 5.862,14.012 12.843,42.334 3.917,48.836 l -19.78,7.91 c -14.976,5.99 -25.472,19.746 -27.392,35.951 l -0.128,0.981 c -0.469,3.396 -3.243,4.318 -4.412,4.557 -2.116,0.427 -4.941,-0.085 -6.562,-2.799 l -8.474,-14.123 c -3.115,-5.197 -8.866,-8.286 -14.839,-7.919 -6.016,0.307 -11.332,3.883 -13.892,9.344 -7.62,16.273 -17.186,39.757 -19.507,59.204 -0.717,6.033 0.358,12.126 3.106,17.63 l 9.839,19.678 c 3.49,6.963 8.841,12.868 15.488,17.067 6.127,3.866 17.485,11.665 24.721,20.403 8.235,9.958 19.328,16.393 31.241,18.313 -0.478,15.983 0.572,42.257 11.452,53.862 3.806,4.053 8.576,6.281 13.858,6.46 0.956,0.128 2.637,0.299 4.813,0.299 6.332,0 16.905,-1.434 26.573,-9.421 13.466,-11.127 20.369,-30.703 20.523,-58.189 l 12.22,-55.006 4.642,7.731 c 3.772,6.289 10.078,10.709 17.28,12.126 7.202,1.417 14.711,-0.307 20.591,-4.71 l 18.654,-13.995 c 2.15,-1.613 3.413,-4.139 3.413,-6.827 C 452.267,188.405 407.552,118.483 338.364,86.449 Z m 81.595,185.301 c -2.048,1.527 -4.565,2.099 -7.066,1.613 -2.509,-0.486 -4.617,-1.971 -5.931,-4.164 l -8.849,-14.754 c -2.918,-4.873 -8.414,-7.433 -14.046,-6.519 -5.606,0.913 -10.027,5.086 -11.264,10.633 l -14.199,63.906 c -0.137,0.606 -0.205,1.229 -0.205,1.852 0,22.161 -4.881,37.999 -14.114,45.807 -8.439,7.134 -18.091,5.589 -18.398,5.547 -1.101,-0.205 -1.937,0.683 -3.729,-1.229 -5.316,-5.675 -8.004,-25.481 -6.536,-48.179 0.171,-2.697 -0.794,-5.385 -2.645,-7.356 -1.86,-1.988 -4.506,-3.123 -7.236,-3.123 -9.566,0 -18.893,-4.634 -25.591,-12.715 -8.303,-10.044 -20.224,-18.577 -28.757,-23.962 -4.011,-2.534 -7.236,-6.084 -9.327,-10.266 l -9.839,-19.678 c -1.254,-2.509 -1.749,-5.274 -1.425,-7.987 2.091,-17.459 11.529,-39.953 17.399,-52.642 l 7.74,12.894 c 5.12,8.533 14.771,12.723 24.619,10.735 9.549,-1.954 16.58,-9.387 17.894,-18.953 l 0.179,-1.348 c 1.169,-9.941 7.595,-18.389 16.768,-22.059 l 20.574,-8.226 c 0.427,-0.171 0.853,-0.384 1.254,-0.623 16.213,-9.847 14.114,-33.417 9.856,-50.671 52.847,31.292 86.588,88.175 88.064,150.076 z"
   id="path6510" />

	</g>

</g>
    <g
       id="g6520"
       transform="matrix(0.26458333,0,0,0.26458333,3520.0173,-124.51839)">
	<g
   id="g6518">
		<path
   inkscape:connector-curvature="0"
   d="m 215.765,382.948 -5.171,-5.163 C 204.322,371.504 197,366.555 188.843,363.056 l -26.317,-11.281 c -10.607,-4.548 -17.459,-14.942 -17.459,-26.487 v -12.843 c 0,-7.859 -3.857,-15.215 -10.317,-19.695 -6.46,-4.471 -14.711,-5.487 -22.067,-2.739 l -40.977,15.36 c -4.113,1.545 -6.391,5.956 -5.248,10.206 19.208,71.535 78.524,127.078 151.117,141.491 0.563,0.111 1.126,0.162 1.673,0.162 3.746,0 7.142,-2.466 8.209,-6.187 l 3.123,-10.94 c 5.802,-20.316 0.127,-42.221 -14.815,-57.155 z m -1.595,52.463 -0.922,3.209 C 152.977,423.815 103.851,377.794 85.12,318.573 l 33.553,-12.578 c 2.159,-0.819 4.471,-0.529 6.357,0.785 1.886,1.306 2.97,3.371 2.97,5.666 v 12.843 c 0,18.381 10.914,34.935 27.802,42.172 l 26.317,11.281 c 6.161,2.645 11.682,6.383 16.41,11.11 l 5.171,5.163 c 10.555,10.555 14.574,26.034 10.47,40.396 z"
   id="path6516" />

	</g>

</g>
    <g
       id="g6526"
       transform="matrix(0.26458333,0,0,0.26458333,3520.0173,-124.51839)">
	<g
   id="g6524">
		<path
   inkscape:connector-curvature="0"
   d="m 166.545,97.918 c -2.671,-3.294 -7.356,-4.122 -11,-1.946 -56.354,33.647 -92.066,92.749 -95.522,158.089 -0.154,2.893 1.169,5.666 3.516,7.364 1.476,1.075 3.226,1.621 5.001,1.621 1.05,0 2.099,-0.196 3.089,-0.572 l 52.932,-20.89 c 12.681,-5.077 19.226,-19.191 14.908,-32.145 -1.05,-3.166 -0.239,-6.596 2.116,-8.96 l 24.593,-24.593 c 8.397,-8.388 13.022,-19.55 13.022,-31.428 v -11.102 c 0,-12.799 -4.497,-25.386 -12.655,-35.438 z m -4.412,46.532 c 0,7.322 -2.85,14.191 -8.03,19.362 l -24.593,24.593 c -6.955,6.963 -9.344,17.084 -6.229,26.419 1.468,4.395 -0.759,9.182 -5.052,10.897 l -39.953,15.838 c 6.63,-51.618 35.422,-97.809 79.172,-126.643 3.055,5.675 4.685,12.023 4.685,18.432 z"
   id="path6522" />

	</g>

</g>
    <g
       id="g6532"
       transform="matrix(0.26458333,0,0,0.26458333,3520.0173,-124.51839)">
	<g
   id="g6530">
		<path
   inkscape:connector-curvature="0"
   d="m 256,0.049 c -8.823,0 -17.724,0.452 -26.453,1.348 -4.685,0.478 -8.098,4.676 -7.62,9.361 0.452,4.395 4.164,7.663 8.482,7.663 0.29,0 0.589,-0.017 0.879,-0.051 8.149,-0.828 16.461,-1.254 24.713,-1.254 4.71,0 8.533,-3.823 8.533,-8.533 0,-4.71 -3.824,-8.534 -8.534,-8.534 z"
   id="path6528" />

	</g>

</g>
    <g
       id="g6538"
       transform="matrix(0.26458333,0,0,0.26458333,3520.0173,-124.51839)">
	<g
   id="g6536">
		<path
   inkscape:connector-curvature="0"
   d="m 20.429,296.207 c -2.227,-13.176 -3.362,-26.684 -3.362,-40.158 0,-2.85 0.051,-5.692 0.154,-8.533 0.162,-4.71 -3.524,-8.653 -8.235,-8.823 -4.668,-0.247 -8.653,3.524 -8.823,8.235 C 0.051,249.956 0,252.994 0,256.049 c 0,14.421 1.212,28.894 3.593,43.008 0.708,4.164 4.318,7.108 8.405,7.108 0.478,0 0.956,-0.034 1.442,-0.119 4.642,-0.785 7.774,-5.189 6.989,-9.839 z"
   id="path6534" />

	</g>

</g>
    <g
       id="g6544"
       transform="matrix(0.26458333,0,0,0.26458333,3520.0173,-124.51839)">
	<g
   id="g6542">
		<path
   inkscape:connector-curvature="0"
   d="m 55.826,386.558 c -8.91,-13.637 -16.436,-28.22 -22.367,-43.35 -1.724,-4.386 -6.673,-6.554 -11.059,-4.83 -4.386,1.715 -6.554,6.665 -4.83,11.059 6.357,16.213 14.421,31.838 23.962,46.447 1.638,2.509 4.369,3.866 7.151,3.866 1.604,0 3.226,-0.452 4.668,-1.382 3.942,-2.577 5.052,-7.868 2.475,-11.81 z"
   id="path6540" />

	</g>

</g>
    <g
       id="g6550"
       transform="matrix(0.26458333,0,0,0.26458333,3520.0173,-124.51839)">
	<g
   id="g6548">
		<path
   inkscape:connector-curvature="0"
   d="m 36.215,141.89 c -4.25,-2.022 -9.344,-0.222 -11.375,4.028 -7.518,15.744 -13.423,32.316 -17.553,49.246 -1.117,4.582 1.682,9.199 6.264,10.316 0.683,0.162 1.365,0.239 2.031,0.239 3.84,0 7.33,-2.62 8.286,-6.511 3.857,-15.795 9.361,-31.258 16.375,-45.943 2.031,-4.258 0.23,-9.344 -4.028,-11.375 z"
   id="path6546" />

	</g>

</g>
    <g
       id="g6556"
       transform="matrix(0.26458333,0,0,0.26458333,3520.0173,-124.51839)">
	<g
   id="g6554">
		<path
   inkscape:connector-curvature="0"
   d="m 99.772,63.937 c -3.098,-3.55 -8.482,-3.925 -12.041,-0.819 -13.133,11.469 -25.139,24.32 -35.678,38.187 -2.85,3.746 -2.125,9.105 1.63,11.955 1.544,1.178 3.354,1.741 5.154,1.741 2.577,0 5.12,-1.169 6.801,-3.371 9.839,-12.953 21.052,-24.951 33.315,-35.652 3.55,-3.098 3.917,-8.491 0.819,-12.041 z"
   id="path6552" />

	</g>

</g>
    <g
       id="g6562"
       transform="matrix(0.26458333,0,0,0.26458333,3520.0173,-124.51839)">
	<g
   id="g6560">
		<path
   inkscape:connector-curvature="0"
   d="m 214.366,491.381 c -16.034,-2.825 -31.821,-7.305 -46.908,-13.329 -4.386,-1.749 -9.344,0.375 -11.093,4.762 -1.749,4.369 0.384,9.335 4.762,11.085 16.171,6.46 33.092,11.264 50.278,14.285 0.495,0.085 0.99,0.128 1.485,0.128 4.07,0 7.672,-2.918 8.405,-7.048 0.811,-4.643 -2.287,-9.064 -6.929,-9.883 z"
   id="path6558" />

	</g>

</g>
    <g
       id="g6568"
       transform="matrix(0.26458333,0,0,0.26458333,3520.0173,-124.51839)">
	<g
   id="g6566">
		<path
   inkscape:connector-curvature="0"
   d="m 321.681,494.863 c -1.092,-4.591 -5.709,-7.407 -10.274,-6.332 -15.77,3.746 -32.043,5.888 -48.375,6.357 -4.71,0.128 -8.422,4.062 -8.286,8.772 0.137,4.625 3.925,8.286 8.525,8.286 0.077,0 0.162,0 0.256,-0.008 17.493,-0.503 34.927,-2.79 51.823,-6.801 4.582,-1.092 7.415,-5.692 6.331,-10.274 z"
   id="path6564" />

	</g>

</g>
    <g
       id="g6574"
       transform="matrix(0.26458333,0,0,0.26458333,3520.0173,-124.51839)">
	<g
   id="g6572">
		<path
   inkscape:connector-curvature="0"
   d="m 189.039,17.593 c -1.425,-4.489 -6.229,-6.963 -10.718,-5.547 -16.606,5.282 -32.734,12.314 -47.932,20.89 -4.105,2.321 -5.547,7.526 -3.234,11.631 1.57,2.773 4.463,4.335 7.441,4.335 1.417,0 2.859,-0.358 4.181,-1.101 14.174,-8.004 29.227,-14.566 44.715,-19.49 4.489,-1.425 6.972,-6.229 5.547,-10.718 z"
   id="path6570" />

	</g>

</g>
    <g
       id="g6580"
       transform="matrix(0.26458333,0,0,0.26458333,3520.0173,-124.51839)">
	<g
   id="g6578">
		<path
   inkscape:connector-curvature="0"
   d="m 124.245,455.396 c -13.551,-8.969 -26.24,-19.379 -37.726,-30.933 -3.319,-3.337 -8.73,-3.362 -12.066,-0.034 -3.337,3.328 -3.354,8.73 -0.034,12.075 12.305,12.373 25.899,23.526 40.405,33.135 1.451,0.956 3.089,1.417 4.702,1.417 2.765,0 5.478,-1.34 7.117,-3.831 2.603,-3.927 1.528,-9.226 -2.398,-11.829 z"
   id="path6576" />

	</g>

</g>
    <g
       id="g6586"
       transform="matrix(0.26458333,0,0,0.26458333,3520.0173,-124.51839)">
	<g
   id="g6584">
		<path
   inkscape:connector-curvature="0"
   d="m 391.305,463.452 c -2.449,-4.028 -7.697,-5.325 -11.725,-2.876 -7.014,4.25 -14.336,8.175 -21.76,11.682 -4.258,2.014 -6.093,7.091 -4.079,11.358 1.459,3.089 4.523,4.898 7.723,4.898 1.22,0 2.458,-0.265 3.644,-0.819 7.962,-3.755 15.804,-7.962 23.322,-12.518 4.027,-2.45 5.315,-7.698 2.875,-11.725 z"
   id="path6582" />

	</g>

</g>
    <g
       id="g6606"
       transform="matrix(0.26458333,0,0,0.26458333,3520.0173,-124.51839)">
</g>
    <g
       id="g6608"
       transform="matrix(0.26458333,0,0,0.26458333,3520.0173,-124.51839)">
</g>
    <g
       id="g6610"
       transform="matrix(0.26458333,0,0,0.26458333,3520.0173,-124.51839)">
</g>
    <g
       id="g6612"
       transform="matrix(0.26458333,0,0,0.26458333,3520.0173,-124.51839)">
</g>
    <g
       id="g6614"
       transform="matrix(0.26458333,0,0,0.26458333,3520.0173,-124.51839)">
</g>
    <g
       id="g6616"
       transform="matrix(0.26458333,0,0,0.26458333,3520.0173,-124.51839)">
</g>
    <g
       id="g6618"
       transform="matrix(0.26458333,0,0,0.26458333,3520.0173,-124.51839)">
</g>
    <g
       id="g6620"
       transform="matrix(0.26458333,0,0,0.26458333,3520.0173,-124.51839)">
</g>
    <g
       id="g6622"
       transform="matrix(0.26458333,0,0,0.26458333,3520.0173,-124.51839)">
</g>
    <g
       id="g6624"
       transform="matrix(0.26458333,0,0,0.26458333,3520.0173,-124.51839)">
</g>
    <g
       id="g6626"
       transform="matrix(0.26458333,0,0,0.26458333,3520.0173,-124.51839)">
</g>
    <g
       id="g6628"
       transform="matrix(0.26458333,0,0,0.26458333,3520.0173,-124.51839)">
</g>
    <g
       id="g6630"
       transform="matrix(0.26458333,0,0,0.26458333,3520.0173,-124.51839)">
</g>
    <g
       id="g6632"
       transform="matrix(0.26458333,0,0,0.26458333,3520.0173,-124.51839)">
</g>
    <g
       id="g6634"
       transform="matrix(0.26458333,0,0,0.26458333,3520.0173,-124.51839)">
</g>
  </g>
</svg>
